<svg id="shop" xmlns="http://www.w3.org/2000/svg" width="16.913" height="14.767" viewBox="0 0 16.913 14.767">
  <g id="Group_4" data-name="Group 4">
    <path id="Path_3" data-name="Path 3" d="M251.639,263.75h-2.3a1.142,1.142,0,0,0-1.14,1.14v1.762a1.142,1.142,0,0,0,1.14,1.14h2.3a1.142,1.142,0,0,0,1.14-1.14V264.89A1.142,1.142,0,0,0,251.639,263.75Zm.311,2.9a.312.312,0,0,1-.311.311h-2.3a.312.312,0,0,1-.311-.311V264.89a.312.312,0,0,1,.311-.311h2.3a.312.312,0,0,1,.311.311Z" transform="translate(-239.623 -255.708)" fill="#2c2f33"/>
    <path id="Path_4" data-name="Path 4" d="M16.913,35.888a.385.385,0,0,0-.055-.2l-2.516-4.423a.417.417,0,0,0-.359-.211H2.927a.41.41,0,0,0-.359.211L.055,35.684a.419.419,0,0,0-.055.2,2.426,2.426,0,0,0,1.451,2.219v7.3a.416.416,0,0,0,.415.415H15.043a.416.416,0,0,0,.415-.415V38.159a.183.183,0,0,0,0-.045A2.433,2.433,0,0,0,16.913,35.888ZM3.169,31.883H13.74l1.966,3.459H1.206Zm8.868,4.285a1.594,1.594,0,0,1-3.138,0Zm-4.019,0a1.6,1.6,0,0,1-3.141,0Zm-7.161,0H4a1.6,1.6,0,0,1-3.141,0Zm6.11,8.819H4.582V40.512a.591.591,0,0,1,.591-.591H6.38a.591.591,0,0,1,.591.591v4.475Zm7.662,0H7.8V40.512a1.423,1.423,0,0,0-1.42-1.42H5.17a1.423,1.423,0,0,0-1.42,1.42v4.479H2.281v-6.68c.048,0,.1,0,.145,0a2.423,2.423,0,0,0,2.011-1.071,2.424,2.424,0,0,0,4.023,0,2.417,2.417,0,0,0,4.016,0,2.423,2.423,0,0,0,2.011,1.071c.048,0,.093,0,.142,0v6.677Zm-.142-7.5a1.593,1.593,0,0,1-1.569-1.313h3.141A1.6,1.6,0,0,1,14.487,37.485Z" transform="translate(0 -31.05)" fill="#4d4d4d"/>
  </g>
</svg>
